<svg class="img-fluid"
     id="outputsvg"
     xmlns="http://www.w3.org/2000/svg"
     width="90"
     height="62"
     viewBox="0 0 900 620">
    <g id="l30BGlT4KWHQxqfpO1h6xSlj"
       fill="rgb(0,0,0)"
       stroke="rgb(0,0,0)"
       stroke-width="1"
       fill-rule="evenodd"
       style="transform: none;">
        <g style="transform: none;">
            <path id="p3q5P5rYK"
                  d="M224 504 C231 443 264 380 290 380 C301 380 310 386 310 394 C310 413 292 423 287 407 C285 400 278 404 270 419 C260 437 260 445 268 447 C286 453 281 467 260 472 C244 476 240 486 240 514 C240 533 235 550 230 550 C224 550 221 531 224 504 ">
            </path>
            <path id="pRhEDiKaq"
                  d="M443 513 C432 487 452 445 478 441 C497 438 501 442 498 461 C496 476 487 486 472 488 C460 489 450 495 450 501 C450 506 459 508 470 505 C493 497 497 514 475 523 C453 532 450 531 443 513 ">
            </path>
            <path id="p3OOXs1lO"
                  d="M684 520 C681 514 686 510 695 510 C710 510 710 508 695 493 C680 478 680 475 701 453 C728 424 750 423 750 450 C750 461 745 470 739 470 C733 470 731 465 735 460 C743 446 726 447 712 461 C702 471 703 477 716 491 C724 500 729 513 725 519 C718 532 691 533 684 520 ">
            </path>
            <path id="pL2R2ljMt"
                  d="M290 496 C290 472 317 440 337 440 C371 440 347 505 310 515 C294 518 290 515 290 496 M310 491 C310 486 316 476 325 470 C341 456 342 459 335 484 C329 500 310 506 310 491 ">
            </path>
            <path id="pO7zrhZGh"
                  d="M373 483 C377 450 380 446 403 446 C418 446 429 450 429 455 C428 460 424 463 419 462 C414 461 403 473 395 490 C375 529 369 527 373 483 ">
            </path>
            <path id="phwpLnGqE"
                  d="M513 504 C506 486 536 437 552 442 C558 444 565 452 568 459 C571 468 568 470 560 465 C553 460 544 463 539 471 C524 493 528 502 550 496 C561 493 568 495 565 500 C555 517 520 520 513 504 ">
            </path>
            <path id="p1DGulmJMF"
                  d="M595 513 C584 499 590 479 610 459 C634 435 650 441 650 476 C650 490 654 498 660 495 C665 491 670 493 670 498 C670 513 652 521 645 510 C641 503 633 503 620 510 C609 515 597 517 595 513 ">
            </path>
            <path id="pdqRWF8pQ"
                  d="M767 482 C765 457 770 439 782 427 C803 406 814 404 806 425 C802 434 806 440 817 440 C830 441 829 443 812 450 C797 456 790 467 790 485 C790 499 794 508 800 505 C805 501 810 503 810 509 C810 515 801 520 790 520 C774 520 769 512 767 482 ">
            </path>
            <path id="p169j0HgDD"
                  d="M476 377 C470 358 496 302 530 259 C561 220 561 220 538 220 C525 220 502 226 487 234 C465 245 460 246 460 235 C460 213 495 190 542 181 C598 170 612 189 580 229 C546 271 528 310 527 341 C527 359 519 374 508 380 C484 392 480 392 476 377 ">
            </path>
            <path id="pAY05suXH"
                  d="M320 367 C320 360 330 350 342 344 C366 334 403 273 414 226 C420 201 418 198 398 201 C383 203 373 214 369 229 C362 261 330 270 330 240 C330 225 323 220 304 220 C245 220 265 157 345 97 C422 38 455 53 409 127 C398 145 390 162 390 164 C390 177 435 152 464 123 C501 86 520 81 539 104 C558 127 544 149 500 168 C463 183 458 191 438 250 C424 291 404 326 383 347 C349 380 320 389 320 367 M345 133 C370 108 393 90 396 92 C399 95 389 116 375 139 C356 169 343 180 325 180 C301 180 302 177 345 133 ">
            </path>
            <path id="pQ3etvdis"
                  d="M108 274 C92 252 103 235 170 180 C230 132 247 103 208 115 C174 125 141 149 160 150 C173 150 173 151 160 160 C134 176 118 171 121 148 C125 121 164 92 206 84 C232 79 240 81 249 99 C267 132 254 154 187 204 C122 253 122 258 190 234 C213 226 235 221 237 224 C248 235 215 270 184 279 C137 293 122 292 108 274 ">
            </path>
        </g>
    </g>
</svg>